# xmcd CD database file generated by Grip 3.2.0
# 
# Track frame offsets:
#       150
#       26332
#       53235
#       81240
#       111237
#       146262
#       181937
#       224647
#       254462
# 
# Disc length: 4162 seconds
# 
# Revision: 2
# Processed by: cddbd v1.5.2PL0 Copyright (c) Steve Scherf et al.
# Submitted via: Grip 3.2.0
# 
DISCID=7d104009
DTITLE=Soulive - Soulive
DYEAR=2003
DGENRE=Funk
TTITLE0=Aladdin
TTITLE1=El ron
TTITLE2=Solid
TTITLE3=First Street
TTITLE4=Shaheed
TTITLE5=Dig
TTITLE6=One In Seven
TTITLE7=Lenny
TTITLE8=Turn It Out
EXTD=Entered by Slice!! In Detroit
EXTT0=
EXTT1=
EXTT2=
EXTT3=
EXTT4=
EXTT5=
EXTT6=
EXTT7=
EXTT8=
PLAYORDER=
